<svg width="12" height="13" viewBox="0 0 12 13" fill="none" xmlns="http://www.w3.org/2000/svg">
<path d="M7.79627 2.01345C7.34018 1.52103 6.70315 1.24986 6.00002 1.24986C5.29315 1.24986 4.65401 1.51939 4.20002 2.00876C3.74112 2.50353 3.51752 3.17595 3.57002 3.90205C3.67409 5.33454 4.76416 6.49986 6.00002 6.49986C7.23588 6.49986 8.32408 5.33478 8.42979 3.90251C8.48299 3.18298 8.25799 2.51197 7.79627 2.01345Z" fill="white"/>
<path d="M10.1249 11.7493H1.87489C1.7669 11.7507 1.65996 11.728 1.56185 11.6829C1.46374 11.6378 1.37691 11.5714 1.3077 11.4885C1.15536 11.3064 1.09395 11.0577 1.13942 10.8062C1.33723 9.70886 1.95458 8.78706 2.92489 8.13995C3.78692 7.5655 4.87887 7.24933 5.99989 7.24933C7.1209 7.24933 8.21285 7.56573 9.07488 8.13995C10.0452 8.78683 10.6625 9.70862 10.8604 10.806C10.9058 11.0575 10.8444 11.3061 10.6921 11.4882C10.6229 11.5712 10.5361 11.6376 10.438 11.6828C10.3398 11.728 10.2329 11.7507 10.1249 11.7493Z" fill="white"/>
</svg>
