<svg width="28" height="21" viewBox="0 0 28 21" fill="none" xmlns="http://www.w3.org/2000/svg">
<path d="M19.6295 15.5958L16.8729 12.8393C17.5366 11.9558 17.8948 10.8804 17.8936 9.77542C17.8936 6.95297 15.5973 4.65668 12.7749 4.65668C9.95242 4.65668 7.65613 6.95297 7.65613 9.77542C7.65613 12.5979 9.95242 14.8942 12.7749 14.8942C13.8799 14.8954 14.9553 14.5371 15.8387 13.8735L18.5953 16.63C18.7348 16.7547 18.9168 16.8213 19.1039 16.8161C19.291 16.8109 19.469 16.7342 19.6013 16.6019C19.7336 16.4695 19.8103 16.2915 19.8155 16.1044C19.8208 15.9174 19.7542 15.7354 19.6295 15.5958ZM9.11863 9.77542C9.11863 9.05229 9.33306 8.34539 9.73482 7.74412C10.1366 7.14286 10.7076 6.67422 11.3757 6.39749C12.0438 6.12076 12.7789 6.04835 13.4882 6.18943C14.1974 6.33051 14.8489 6.67873 15.3602 7.19007C15.8716 7.7014 16.2198 8.35288 16.3609 9.06213C16.5019 9.77137 16.4295 10.5065 16.1528 11.1746C15.8761 11.8427 15.4074 12.4137 14.8062 12.8155C14.2049 13.2172 13.498 13.4317 12.7749 13.4317C11.8055 13.4305 10.8762 13.0449 10.1908 12.3595C9.50537 11.6741 9.11979 10.7448 9.11863 9.77542Z" fill="#2D3748"/>
</svg>
