<svg width="17" height="17" viewBox="0 0 17 17" fill="none" xmlns="http://www.w3.org/2000/svg">
<path fill-rule="evenodd" clip-rule="evenodd" d="M2.25631 8.5515L0 4.64346L2.63587 0.0993046L7.88916 0.0886497L10.1455 3.9967L14.354 3.99853L16.9563 8.50582L14.3054 13.0239L10.1118 13.048L7.99418 16.6677L2.75592 16.7044L0.153632 12.1971L2.25631 8.5515ZM13.4332 11.5126L15.2056 8.50927L13.4606 5.48688L9.97344 5.52012L8.38884 8.24135L10.2843 11.5243L13.4332 11.5126ZM7.122 15.1564L8.70659 12.4352L6.81119 9.15222L3.66223 9.1639L1.88986 12.1672L3.63484 15.1896L7.122 15.1564ZM6.96827 7.60257L8.74064 4.59922L6.99566 1.57683L3.5085 1.61007L1.73613 4.61342L3.4811 7.63581L6.96827 7.60257Z" fill="#1A202C"/>
</svg>
