<svg width="48" height="49" viewBox="0 0 48 49" fill="none" xmlns="http://www.w3.org/2000/svg">
<rect y="0.52887" width="48" height="48" rx="8" fill="#3182CE"/>
<path d="M19.9686 33.5288C20.9696 33.5288 21.7811 32.8572 21.7811 32.0288C21.7811 31.2004 20.9696 30.5288 19.9686 30.5288C18.9676 30.5288 18.1561 31.2004 18.1561 32.0288C18.1561 32.8572 18.9676 33.5288 19.9686 33.5288Z" fill="white"/>
<path d="M32.6561 33.5288C33.6571 33.5288 34.4686 32.8572 34.4686 32.0288C34.4686 31.2004 33.6571 30.5288 32.6561 30.5288C31.6551 30.5288 30.8436 31.2004 30.8436 32.0288C30.8436 32.8572 31.6551 33.5288 32.6561 33.5288Z" fill="white"/>
<path d="M35.8733 18.1907C35.746 18.0618 35.5856 17.958 35.4038 17.8868C35.2219 17.8156 35.0232 17.7788 34.8221 17.7791H17.5835L17.2363 16.1488C17.1993 15.9752 17.0895 15.8178 16.9262 15.7045C16.763 15.5912 16.5567 15.5291 16.3436 15.5291H12.7186C12.4783 15.5291 12.2478 15.6081 12.0778 15.7488C11.9079 15.8895 11.8124 16.0802 11.8124 16.2791C11.8124 16.478 11.9079 16.6688 12.0778 16.8095C12.2478 16.9501 12.4783 17.0291 12.7186 17.0291H15.5835L18.1697 29.1594C18.2067 29.3331 18.3165 29.4904 18.4798 29.6037C18.643 29.7171 18.8493 29.7792 19.0624 29.7791H33.5624C33.8027 29.7791 34.0332 29.7001 34.2032 29.5595C34.3731 29.4188 34.4686 29.228 34.4686 29.0291C34.4686 28.8302 34.3731 28.6394 34.2032 28.4988C34.0332 28.3581 33.8027 28.2791 33.5624 28.2791H19.8225L19.503 26.7791H33.1908C33.5051 26.7788 33.8096 26.6886 34.0528 26.5238C34.2959 26.3591 34.4629 26.1298 34.5253 25.8749L36.1565 19.1249C36.1958 18.9616 36.1908 18.793 36.1418 18.6314C36.0929 18.4699 36.0011 18.3193 35.8733 18.1907Z" fill="#FDFDFD"/>
</svg>
