<svg width="48" height="49" viewBox="0 0 48 49" fill="none" xmlns="http://www.w3.org/2000/svg">
<rect y="0.0577393" width="48" height="48" rx="8" fill="#3182CE"/>
<path d="M17.1967 15.6259H31.2592C31.4234 15.6258 31.5875 15.6362 31.7505 15.6571C31.6953 15.2694 31.5621 14.8969 31.359 14.5621C31.1559 14.2272 30.8871 13.937 30.5688 13.7088C30.2506 13.4807 29.8894 13.3194 29.507 13.2346C29.1247 13.1498 28.7292 13.1433 28.3443 13.2155L16.7792 15.19H16.766C16.0401 15.3288 15.3945 15.7395 14.9612 16.3383C15.614 15.8739 16.3955 15.6249 17.1967 15.6259Z" fill="white"/>
<path d="M31.2593 16.6826H17.1968C16.4511 16.6834 15.7362 16.98 15.2089 17.5072C14.6817 18.0345 14.3851 18.7494 14.3843 19.4951V27.9326C14.3851 28.6783 14.6817 29.3932 15.2089 29.9204C15.7362 30.4477 16.4511 30.7443 17.1968 30.7451H31.2593C32.0049 30.7443 32.7198 30.4477 33.2471 29.9204C33.7744 29.3932 34.071 28.6783 34.0718 27.9326V19.4951C34.071 18.7494 33.7744 18.0345 33.2471 17.5072C32.7198 16.98 32.0049 16.6834 31.2593 16.6826ZM29.1719 25.1201C28.8937 25.1201 28.6219 25.0376 28.3906 24.8831C28.1593 24.7286 27.9791 24.5089 27.8727 24.252C27.7662 23.995 27.7384 23.7123 27.7926 23.4395C27.8469 23.1667 27.9808 22.9161 28.1775 22.7195C28.3742 22.5228 28.6247 22.3889 28.8975 22.3346C29.1703 22.2803 29.4531 22.3082 29.71 22.4146C29.967 22.5211 30.1866 22.7013 30.3411 22.9326C30.4956 23.1638 30.5781 23.4357 30.5781 23.7138C30.5781 24.0868 30.43 24.4445 30.1662 24.7082C29.9025 24.9719 29.5448 25.1201 29.1719 25.1201Z" fill="white"/>
<path d="M14.4062 22.4591V18.0866C14.4062 17.1343 14.9336 15.5377 16.7639 15.1919C18.3174 14.9005 19.8555 14.9005 19.8555 14.9005C19.8555 14.9005 20.8662 15.6037 20.0312 15.6037C19.1963 15.6037 19.2183 16.6803 20.0312 16.6803C20.8442 16.6803 20.0312 17.713 20.0312 17.713L16.7573 21.4264L14.4062 22.4591Z" fill="white"/>
</svg>
