<svg width="48" height="48" viewBox="0 0 48 48" fill="none" xmlns="http://www.w3.org/2000/svg">
<rect width="48" height="48" rx="8" fill="#3182CE"/>
<path d="M28.1912 13.6574C27.127 12.4674 25.6406 11.812 23.9999 11.812C22.3506 11.812 20.8592 12.4634 19.7999 13.6461C18.7291 14.8418 18.2074 16.4668 18.3299 18.2215C18.5727 21.6834 21.1163 24.4995 23.9999 24.4995C26.8836 24.4995 29.4227 21.6839 29.6694 18.2226C29.7935 16.4838 29.2685 14.8621 28.1912 13.6574Z" fill="white"/>
<path d="M33.6249 37.1858H14.3749C14.123 37.1892 13.8735 37.1343 13.6445 37.0253C13.4156 36.9162 13.213 36.7557 13.0515 36.5554C12.696 36.1153 12.5528 35.5143 12.6589 34.9066C13.1204 32.2546 14.5609 30.027 16.8249 28.4631C18.8364 27.0749 21.3842 26.3108 23.9999 26.3108C26.6156 26.3108 29.1635 27.0754 31.1749 28.4631C33.439 30.0264 34.8795 32.2541 35.341 34.906C35.4471 35.5137 35.3038 36.1147 34.9484 36.5548C34.7869 36.7552 34.5844 36.9159 34.3554 37.025C34.1265 37.1342 33.8769 37.1891 33.6249 37.1858Z" fill="white"/>
</svg>
